HIERARCHY
ROOT root
{
	OFFSET 0.000000 0.000000 0.000000
	CHANNELS 6 Xposition Yposition Zposition Zrotation Yrotation Xrotation
	JOINT lhip
	{
		OFFSET 0.058581 -0.082280 -0.017664
		CHANNELS 3 Zrotation Yrotation Xrotation
		JOINT lknee
		{
			OFFSET 0.043451 -0.386469 0.008037
			CHANNELS 3 Zrotation Yrotation Xrotation
			JOINT lankle
			{
				OFFSET -0.014790 -0.426874 -0.037428
				CHANNELS 3 Zrotation Yrotation Xrotation
				JOINT ltoe
				{
					OFFSET 0.041054 -0.060286 0.122042
					CHANNELS 3 Zrotation Yrotation Xrotation
					End Site
					{
						OFFSET 0.000000 0.000000 0.000000
					}
				}
			}
		}
	}
	JOINT rhip
	{
		OFFSET -0.060310 -0.090513 -0.013543
		CHANNELS 3 Zrotation Yrotation Xrotation
		JOINT rknee
		{
			OFFSET -0.043257 -0.383688 -0.004843
			CHANNELS 3 Zrotation Yrotation Xrotation
			JOINT rankle
			{
				OFFSET 0.019056 -0.420046 -0.034562
				CHANNELS 3 Zrotation Yrotation Xrotation
				JOINT rtoe
				{
					OFFSET -0.034840 -0.062106 0.130323
					CHANNELS 3 Zrotation Yrotation Xrotation
					End Site
					{
						OFFSET 0.000000 0.000000 0.000000
					}
				}
			}
		}
	}
	JOINT lowerback
	{
		OFFSET 0.004439 0.124404 -0.038385
		CHANNELS 3 Zrotation Yrotation Xrotation
		JOINT upperback
		{
			OFFSET 0.004488 0.137956 0.026820
			CHANNELS 3 Zrotation Yrotation Xrotation
			JOINT chest
			{
				OFFSET -0.002265 0.056032 0.002855
				CHANNELS 3 Zrotation Yrotation Xrotation
				JOINT lowerneck
				{
					OFFSET -0.013390 0.211636 -0.033468
					CHANNELS 3 Zrotation Yrotation Xrotation
					JOINT upperneck
					{
						OFFSET 0.010113 0.088937 0.050410
						CHANNELS 3 Zrotation Yrotation Xrotation
						End Site
						{
							OFFSET 0.000000 0.000000 0.000000
						}
					}
				}
				JOINT lclavicle
				{
					OFFSET 0.071702 0.114000 -0.018898
					CHANNELS 3 Zrotation Yrotation Xrotation
					JOINT lshoulder
					{
						OFFSET 0.122921 0.045205 -0.019046
						CHANNELS 3 Zrotation Yrotation Xrotation
						JOINT lelbow
						{
							OFFSET 0.255332 -0.015649 -0.022946
							CHANNELS 3 Zrotation Yrotation Xrotation
							JOINT lwrist
							{
								OFFSET 0.265709 0.012698 -0.007375
								CHANNELS 3 Zrotation Yrotation Xrotation
								End Site
								{
									OFFSET 0.000000 0.000000 0.000000
								}
							}
						}
					}
				}
				JOINT rclavicle
				{
					OFFSET -0.082954 0.112472 -0.023707
					CHANNELS 3 Zrotation Yrotation Xrotation
					JOINT rshoulder
					{
						OFFSET -0.113228 0.046853 -0.008472
						CHANNELS 3 Zrotation Yrotation Xrotation
						JOINT relbow
						{
							OFFSET -0.260127 -0.014369 -0.031269
							CHANNELS 3 Zrotation Yrotation Xrotation
							JOINT rwrist
							{
								OFFSET -0.269108 0.006794 -0.006027
								CHANNELS 3 Zrotation Yrotation Xrotation
								End Site
								{
									OFFSET 0.000000 0.000000 0.000000
								}
							}
						}
					}
				}
			}
		}
	}
}
MOTION
Frames: 8
Frame Time: 0.033333
0.159116 0.776008 0.997801 100.052636 -1.303050 85.799227 -5.522989 0.917436 15.638509 -0.065652 -18.998593 1.264999 3.788842 16.213810 -13.416088 0.000000 -0.000000 0.000000 -1.657766 -2.206483 -21.856579 -3.936496 -6.785732 4.080920 0.593240 -18.639401 0.578508 0.000000 -0.000000 0.000000 -4.344970 -5.232716 4.715452 2.623781 -3.455804 6.323491 0.756091 0.454436 -3.723680 -3.611419 -5.932831 -4.541132 5.952190 -0.583335 -5.536058 -27.338800 -10.906767 2.250746 -52.864018 -20.023458 16.433429 9.181990 -26.219642 -13.158321 1.389897 -9.276411 4.633262 24.232476 8.516655 3.017857 56.793419 -3.018095 10.117460 -8.487978 20.711599 0.115359 -2.086945 4.459020 1.976050 
0.192062 0.771920 0.994228 100.861014 -1.513470 86.520693 -4.704590 0.895078 16.494950 -0.561388 -19.257827 2.932976 3.200061 15.392077 -13.953178 0.000000 -0.000000 0.000000 -1.497038 -1.770712 -21.725807 -4.653463 -5.847098 -0.304159 0.547328 -17.823101 0.874722 0.000000 -0.000000 0.000000 -4.514076 -5.180435 3.729751 2.519162 -3.452846 6.831116 0.513428 0.315832 -4.398319 -3.537334 -6.236068 -4.127406 5.769278 -0.979396 -4.864342 -27.683138 -10.097850 2.411000 -53.190122 -19.879085 17.209103 9.062409 -28.008821 -13.310849 0.175470 -9.538550 4.454278 24.551800 7.732991 3.318942 56.449863 -3.010084 10.441047 -8.136543 20.441031 0.594388 -0.558839 4.262078 2.563861 
0.226561 0.767850 0.991725 102.028526 -1.685688 87.046975 -3.632404 0.396291 17.165532 -1.634938 -20.216177 5.518539 2.517688 14.957295 -13.414465 0.000000 -0.000000 0.000000 -1.820939 -1.396919 -21.343302 -4.222072 -5.094140 0.330450 0.256401 -17.454045 0.509258 0.000000 -0.000000 0.000000 -4.682316 -5.450985 2.774411 2.518252 -3.445545 6.685551 0.288170 0.282503 -4.199537 -3.733429 -6.682910 -3.420083 5.700091 -1.083437 -4.325141 -28.005992 -9.300288 2.586328 -53.575342 -19.473462 17.528137 8.484674 -28.683183 -12.741430 -0.611593 -9.448126 4.408269 24.594517 7.069992 3.182309 56.186185 -3.011037 10.317663 -7.887008 20.207440 0.934256 0.109121 3.937689 3.053551 
0.263402 0.762856 0.991119 102.838536 -1.554344 87.357477 -2.024950 -0.140831 17.589315 -3.031676 -20.400895 8.988513 1.752655 14.201541 -11.387598 0.000000 -0.000000 0.000000 -1.531199 -0.996759 -20.201976 -3.846400 -6.583918 2.214821 -0.888654 -17.288656 3.773512 0.000000 -0.000000 0.000000 -4.643184 -5.517353 1.664226 2.603173 -3.284272 7.475611 0.069239 0.335493 -4.785134 -3.766203 -6.662439 -2.742629 5.205620 -2.041854 -3.835587 -28.272483 -8.683888 3.252675 -53.902452 -18.444521 17.343263 8.129819 -28.404311 -12.116484 -1.991209 -9.375711 4.810426 25.075187 7.080050 3.453288 55.551080 -3.205455 9.650099 -8.104134 20.110446 0.431640 0.729549 3.942513 3.748605 
0.301043 0.757604 0.993867 103.249659 -0.859938 87.462139 0.055469 -0.933500 16.891826 -5.074605 -18.899738 14.440908 0.613073 13.105274 -6.819467 0.000000 -0.000000 0.000000 -0.745455 -0.311244 -18.117251 -3.123928 -7.676876 2.983060 -1.809902 -16.908640 7.563055 0.000000 -0.000000 0.000000 -3.835261 -5.344128 1.250320 2.548907 -3.180539 6.975734 -0.116767 0.402393 -4.566578 -3.363886 -6.398486 -2.001975 4.298083 -2.635410 -3.765501 -28.956378 -7.946152 3.167383 -53.978224 -16.656432 17.257223 7.479880 -26.413882 -11.276796 -2.550024 -9.651339 5.155813 25.621033 7.276817 3.389380 54.488146 -3.018188 9.517793 -7.837947 19.619037 0.423992 1.076435 3.597131 4.365843 
0.338191 0.751738 0.998934 102.849010 -0.550416 87.577290 1.753724 -1.102867 13.912028 -7.697227 -15.335465 22.886438 -0.864805 11.585882 0.324851 0.000000 -0.000000 0.000000 0.234455 0.116577 -15.742966 -2.360506 -7.186404 3.173303 -3.486561 -15.691692 7.775454 0.000000 -0.000000 0.000000 -3.619310 -4.413624 0.841041 2.482468 -3.028354 6.416069 -0.056374 0.313099 -4.440887 -2.957321 -6.328902 -1.506172 3.570929 -2.941653 -3.550084 -28.232748 -6.936910 3.565520 -55.379003 -14.494549 17.065575 7.858626 -23.981244 -10.177708 -2.701263 -8.198535 5.108454 25.166466 7.208162 3.467494 54.600545 -2.094114 10.005896 -8.187849 19.540915 0.655111 0.425021 3.246560 4.723238 
0.372740 0.745800 1.003854 102.007062 -0.603222 87.582992 2.732308 -2.157448 9.102475 -9.792431 -9.982897 33.370347 -1.863675 10.521652 7.824629 0.000000 -0.000000 0.000000 1.217204 0.257050 -13.596329 -1.926292 -6.444840 3.874713 -5.632290 -14.873451 6.696279 0.000000 -0.000000 0.000000 -3.740881 -3.037252 0.767454 2.122526 -3.000632 5.919931 0.018196 0.444863 -4.230404 -2.264622 -6.159582 -1.394687 3.205171 -3.646801 -3.576363 -26.843018 -6.449833 3.560875 -56.754823 -12.533337 16.783085 7.874631 -20.381043 -8.527939 -4.397292 -6.565261 4.796792 24.405749 7.695028 3.337499 54.898860 -1.243148 10.254735 -8.408596 20.576212 0.331154 0.842771 2.509882 4.380903 
0.405206 0.740650 1.006785 101.480122 -0.614658 87.272353 3.427543 -3.171867 3.193137 -10.583148 -5.336055 44.075402 -0.648203 9.755348 15.307856 0.000000 -0.000000 0.000000 2.251035 0.374530 -10.920243 -1.753230 -5.819367 3.976973 -7.362815 -14.735118 5.167306 0.000000 -0.000000 0.000000 -3.927635 -1.560212 1.159392 1.838070 -3.325227 6.154082 0.293363 0.558152 -4.435129 -2.252336 -6.752622 -1.799001 3.217059 -4.067505 -3.459720 -26.039773 -7.216461 4.141482 -57.131555 -10.387293 15.878170 8.137771 -17.291770 -7.464247 -5.515262 -4.942912 4.720597 23.913059 8.845181 3.567410 54.375601 -0.133266 9.970613 -8.648414 22.332378 -0.825862 1.633180 2.042066 3.946400 
